
        <svg xmlns="http://www.w3.org/2000/svg" xmlns:xlink="http://www.w3.org/1999/xlink" version="1.1" width="3187.5" 
        height="665.1177817497808" viewBox="0 0 3187.5 665.1177817497808">
			
			<g transform="scale(9.375) translate(10, 10)">
				<defs id="SvgjsDefs1420"></defs><g id="SvgjsG1421" featureKey="symbolFeature-0" transform="matrix(1.0013817589181362,0,0,1.0013817589181362,-0.06909534709530378,-24.595939037584976)" fill="#4ecca3"><g xmlns="http://www.w3.org/2000/svg"><path d="M99.859,25.475l-17.184,5.448l0.148,0.955l-7.432,2.154l0.812,4.357l-9.449-0.511l-11.467-6.13   c0,0-3.842-1.529-12.662-1.374l-1.535,1.887l-17.486,1.95l0.317-2.498l-7.546-1.716l0.094-0.962L0.069,24.562v36.621l13.14,1.196   l0.136-1.39l6.896-0.201l0.354-2.796l1.54,0.058c0.569,3.421,4.459,3.065,4.459,3.065s0.591-0.329,1.25-0.774l0.665,0.512   l-1.581,1.176c-0.066,1.234,0.116,3.255,1.46,4.268c1.574,1.186,4.031,1.012,4.629,0.378c0.204-0.217,0.753-0.702,1.342-1.318   l0.725,0.558l-2.119,2.507c1.86,3.947,6.757,2.983,6.757,2.983l0.922-1.212l0.712,0.549l-0.701,0.944   c0.928,2.465,3.733,2.511,5.033,2.39l0.983,0.757l0.167,0.064c1.094,0.422,2.177,0.566,3.166,0.537   c2.346-0.084,4.178-1.047,5.043-1.589c0.748,0.19,1.459,0.268,2.121,0.248c2.152-0.059,3.703-1.147,4.625-2.153   c0.469-0.506,0.805-0.996,1.025-1.371c2.914-0.391,4.689-1.554,5.635-2.846c0.529-0.722,0.791-1.431,0.918-1.997   c2.148-0.406,3.617-1.679,4.465-2.863c0.996-1.375,1.301-2.646,1.326-2.739l0.148-0.614l-1.449-1.69l5.67-1.608l1.236,6.631   l6.896-0.201l0.217,1.38l12.051-1.903L99.859,25.475z M18.336,58.689l-4.494,0.131l3.6-26.371l4.098,0.932L18.336,58.689z    M71.562,61.768c-0.66,0.747-1.543,1.392-2.941,1.575l-9.303-11.425l-1.91,1.555l9.555,11.733c-0.068,0.293-0.205,0.672-0.49,1.052   c-0.525,0.696-1.572,1.551-4.07,1.878l-6.531-8.495l-1.953,1.5l6.555,8.525c-0.186,0.266-0.432,0.57-0.736,0.853   c-0.639,0.588-1.463,1.075-2.639,1.112c-0.445,0.014-0.957-0.046-1.537-0.204l-3.377-4.3l-1.937,1.521l2.759,3.512   c-0.773,0.378-1.877,0.786-3.074,0.813c-0.657,0.019-1.343-0.065-2.048-0.313l-0.562-0.433l2.062-3.772   c-0.427-4.093-4.288-2.748-4.288-2.748l-2.271,3.058l-0.693-0.532l2.532-3.333c0.851-5.978-4.854-4.579-4.854-4.579l-3.136,3.711   l-0.824-0.635c0.392-0.742,0.555-1.497,0.189-2.146c-1.262-2.234-3.842-2.017-5.205-1.715l-1.219-0.938   c0.207-0.971-0.987-3.193-3.402-3.524c-1.037-0.141-1.933,0.165-2.626,0.567l-2.682-0.099l2.384-18.816l15.585-1.736L38.864,35   c0,0,3.246,7.052,9.17,1.842l8.158,4.155l16.383,19.104C72.391,60.549,72.064,61.191,71.562,61.768z M82.547,60.635l-4.678-25.078   l4.037-1.169l5.133,26.116L82.547,60.635z"></path></g></g><g id="SvgjsG1422" featureKey="nameFeature-0" transform="matrix(0.9792925412324657,0,0,0.9792925412324657,119.00544080155967,-5.244051450813172)" fill="#393e46"><path d="M1.84 35.76 l0 -8.2 c-0.04 -0.8 0.28 -1.44 0.92 -1.88 c2.56 -1.72 5.12 -3.44 7.72 -5.12 c0.68 -0.48 1.48 -0.4 2.16 0.16 l2.84 2.08 c0.56 0.44 0.84 1 0.84 1.72 c-0.04 2.96 0 5.92 0.12 8.88 c0.04 0.96 0.44 1.68 1.24 2.2 c0.16 0.08 0.32 0.16 0.48 0.28 c1.52 0.96 1.8 2.04 0.92 3.64 l-3.4 6.12 c-0.28 0.48 -0.52 1 -0.76 1.48 c-0.52 1.12 -1.36 1.64 -2.56 1.6 c-1.8 -0.08 -3.64 -0.16 -5.44 0.04 c-0.88 0.08 -1.8 0.16 -2.64 0.48 c-0.6 0.24 -1.12 0.56 -1.48 1.16 c-0.16 0.24 -0.32 0.52 -0.68 0.48 c-0.36 -0.08 -0.68 -0.32 -0.72 -0.68 c-0.28 -1.56 -0.64 -3.12 -0.12 -4.72 c0.44 -1.44 1.68 -2.24 3.52 -2.36 c1.72 -0.08 3.48 0.08 5.2 0.2 c1.16 0.08 2.36 0.12 3.52 0.04 c0.64 -0.04 1.2 -0.2 1.72 -0.64 c0.76 -0.64 0.72 -1.44 -0.04 -2.04 l-3.88 -3.16 c-0.32 -0.28 -0.56 -0.48 -1 -0.08 c-0.72 0.68 -1.48 1.28 -2.24 1.92 c-0.92 0.8 -1.8 0.8 -2.72 0.04 l-2.64 -1.92 c-0.6 -0.44 -0.88 -0.96 -0.88 -1.72 z M7.72 24.28 c-0.6 0.32 -0.64 0.92 -0.64 1.56 l0 7.12 c0 1.44 0.92 2.64 2.28 3 c0.2 0.04 0.4 0.04 0.56 -0.08 c0.64 -0.36 1.16 -0.88 1.28 -1.68 c0.36 -2.32 0.04 -4.72 0.12 -6.88 c0 -0.68 -0.2 -1.24 -0.64 -1.76 c-0.32 -0.36 -0.72 -0.72 -1.12 -1 c-0.6 -0.44 -1.2 -0.6 -1.84 -0.28 z M10.92 22.28 c-0.2 0.24 -0.16 0.52 0.08 0.72 c0.32 0.32 0.64 0.68 1.04 0.92 c1.04 0.72 1.28 1.76 1.24 2.92 c-0.12 2.6 -0.04 5.2 -0.08 7.76 c0 0.92 0.28 1.6 1 2.16 c0.68 0.48 1.36 0.96 2 1.52 c0.36 0.28 0.72 0.6 0.52 1.16 c-0.12 0.32 0.12 0.56 0.4 0.64 c0.32 0.12 0.48 -0.04 0.6 -0.32 c0.24 -0.44 0.24 -0.88 0 -1.32 c-0.24 -0.52 -0.68 -0.92 -1.12 -1.28 c-0.52 -0.44 -1.08 -0.8 -1.64 -1.24 c-0.48 -0.36 -0.72 -0.76 -0.68 -1.4 c0.04 -1.44 0 -2.88 0 -8.64 c0 -0.72 -0.12 -1.4 -0.6 -1.92 c-0.64 -0.64 -1.32 -1.2 -1.96 -1.8 c-0.28 -0.2 -0.56 -0.16 -0.8 0.12 z M3.96 27.68 l0 6.8 c-0.04 1.64 0.8 2.92 2.28 3.56 c0.28 0.12 0.56 0.04 0.72 -0.2 c0.2 -0.28 0.12 -0.52 -0.08 -0.68 c-0.36 -0.32 -0.68 -0.64 -1.08 -0.88 c-0.56 -0.36 -0.76 -0.84 -0.76 -1.48 c0.04 -2.32 0.08 -4.56 0.08 -6.84 c0 -0.6 0.08 -1.16 0.52 -1.6 c0.24 -0.28 0.24 -0.56 -0.04 -0.8 s-0.52 -0.2 -0.76 0.04 c-0.52 0.56 -0.88 1.32 -0.88 2.08 z M14.68 45.88 c0.24 -0.24 0.28 -0.56 0.04 -0.84 c-0.24 -0.24 -0.52 -0.24 -0.76 -0.04 c-0.28 0.32 -0.64 0.32 -1 0.32 c-2.76 -0.04 -5.56 -0.04 -8.32 -0.04 c-0.48 0 -0.92 0.08 -1.32 0.24 c-0.48 0.2 -0.8 0.48 -1 0.92 c-0.08 0.28 -0.12 0.56 0.2 0.76 c0.28 0.16 0.6 0.12 0.76 -0.2 c0.32 -0.52 0.76 -0.64 1.32 -0.64 l8.64 0 c0.52 0 1.04 -0.08 1.44 -0.48 z M21.560000000000002 34.8 c-0.4 -0.28 -0.44 -0.72 -0.4 -1.16 c0.12 -2.32 0.08 -4.6 0.08 -6.88 c0 -0.76 0.4 -1.28 0.96 -1.68 c2.36 -1.68 4.76 -3.32 7.16 -4.96 c0.68 -0.48 1.76 -0.44 2.36 0.08 c0.96 0.92 2.12 1.68 3.12 2.56 c0.44 0.4 0.68 0.96 0.76 1.52 c0.08 0.44 -0.16 0.84 -0.52 1.16 c-2.64 2.2 -5.36 4.32 -8.24 6.2 c-0.8 0.64 -0.64 1.52 -0.56 2.52 c0.12 0.96 0.88 1.28 1.68 0.72 c0.76 -0.6 1.44 -1.24 2.12 -1.88 c0.8 -0.8 1.4 -0.8 2.28 -0.12 l1.24 0.96 c0.96 0.84 1 1.64 0.08 2.52 c-1 0.96 -2 1.92 -3.04 2.84 c-0.84 0.72 -1.96 0.8 -3.04 0.04 c-2.04 -1.44 -4.04 -2.96 -6.04 -4.44 z M26.16 25.32 c0.04 2.48 0.04 2.8 0.12 3.16 c0.16 0.68 0.76 1.12 1.44 1 c1.04 -0.2 1.84 -0.8 2.4 -1.72 c0.32 -0.56 0.32 -1.2 -0.08 -1.68 c-0.44 -0.52 -0.8 -1.08 -1.24 -1.6 c-0.56 -0.6 -1.12 -0.92 -1.72 -0.72 c-0.56 0.2 -0.92 0.76 -0.92 1.56 z M23.76 26.08 c-0.48 0.04 -0.56 0.36 -0.56 0.76 l0 6.4 c0 0.4 0.08 0.76 0.6 0.76 s0.52 -0.4 0.52 -0.8 c0 -2.12 -0.04 -4.24 0 -6.36 c0 -0.4 -0.08 -0.76 -0.56 -0.76 z M29.68 21.48 c-0.28 0.2 -0.32 0.52 -0.08 0.8 l2.56 2.88 c0.16 0.16 0.36 0.2 0.56 0.08 c0.24 -0.12 0.32 -0.28 0.36 -0.52 c-0.04 -0.16 -0.08 -0.28 -0.2 -0.44 l-2.4 -2.72 c-0.24 -0.28 -0.56 -0.32 -0.8 -0.08 z M29 36.36 c-0.28 0.24 -0.52 0.52 -0.2 0.88 s0.64 0.24 0.96 -0.04 c0.8 -0.72 1.64 -1.44 2.44 -2.2 c0.16 -0.12 0.32 -0.24 0.32 -0.4 c0 -0.28 -0.16 -0.44 -0.32 -0.56 c-0.28 -0.12 -0.48 -0.04 -0.72 0.16 z M45.96 23.4 c0.92 0 1.08 0.2 1.04 1.08 c0 0.44 0 0.88 -0.04 1.32 c-0.08 0.72 -0.36 1 -1.12 1.04 l-1.92 0 c-0.52 0 -0.76 0.24 -0.76 0.72 c0 2.08 -0.04 4.16 -0.04 6.24 c0 0.44 0.24 0.8 0.64 1.08 l1.32 1.04 c0.56 0.44 0.72 0.96 0.32 1.56 c-0.68 1 -1.6 1.88 -2.6 2.56 c-0.64 0.48 -1.4 0.2 -1.96 -0.24 c-0.92 -0.76 -1.76 -1.56 -2.64 -2.32 c-0.4 -0.36 -0.48 -0.84 -0.48 -1.32 c-0.04 -1.92 -0.04 -3.84 -0.04 -15.08 c0.04 -0.88 -0.28 -1.56 -1.04 -2 c-0.44 -0.28 -0.84 -0.56 -1.2 -0.88 c-0.6 -0.44 -0.72 -0.92 -0.36 -1.56 c0.32 -0.56 0.84 -0.92 2.16 -2.16 c0.84 -0.76 1.8 -0.8 2.72 -0.12 c0.92 0.72 1.8 1.48 2.68 2.2 c0.44 0.4 0.52 0.92 0.52 1.48 l0 4.56 c0 0.56 0.24 0.84 0.84 0.8 c0.64 -0.04 1.32 -0.04 1.96 0 z M43.2 37.2 c0.28 -0.36 0.16 -0.68 -0.2 -0.92 l-1.36 -0.96 c-0.44 -0.32 -0.64 -0.72 -0.64 -1.28 c0.04 -2.48 0 -5 0 -15 c0 -0.76 -0.16 -1.4 -0.72 -1.92 c-0.6 -0.56 -1.24 -1.04 -1.88 -1.56 c-0.32 -0.28 -0.64 -0.24 -0.88 0.08 c-0.24 0.28 -0.08 0.56 0.16 0.76 l1.44 1.2 c0.6 0.4 0.84 0.96 0.8 1.68 l0 14.96 c0 0.8 0.28 1.4 0.92 1.84 c0.52 0.32 1 0.72 1.52 1.08 c0.28 0.24 0.56 0.44 0.84 0.04 z M45.480000000000004 25.52 c0.24 0 0.44 -0.12 0.44 -0.4 c0.04 -0.28 -0.16 -0.44 -0.4 -0.44 l-1.68 0 c-0.24 0 -0.36 0.16 -0.36 0.4 c0 0.2 0.2 0.32 0.4 0.36 z M49.12 31.8 c0 -3.56 0.08 -7.12 -0.04 -10.72 c-0.04 -1.64 0.6 -2.76 1.88 -3.68 c2.48 -1.76 4.92 -3.56 7.36 -5.36 c0.6 -0.48 1.28 -0.64 2 -0.52 c0.4 0.04 0.72 0.16 1.04 0.4 c1.32 1.08 2.64 2.12 3.96 3.16 c0.24 0.2 0.44 0.4 0.6 0.68 c0.32 0.52 0.32 0.84 -0.12 1.28 c-0.72 0.72 -1.44 1.44 -2.2 2.12 c-0.72 0.72 -1.6 0.72 -2.36 0.04 l-2.04 -1.84 c-0.52 -0.52 -1.12 -0.96 -1.76 -1.28 c-0.68 -0.36 -1.16 -0.24 -1.6 0.32 c-0.36 0.48 -0.6 1 -0.6 1.64 c0.04 2.52 0.04 5.04 0.12 15.4 c-0.04 0.96 0.36 1.72 1.12 2 c0.32 0.16 0.64 0.16 0.96 -0.04 c1.32 -0.76 2.32 -1.84 3.44 -2.84 c0.24 -0.2 0.44 -0.44 0.76 -0.6 c0.6 -0.24 1.2 -0.2 1.72 0.28 c0.76 0.72 1.56 1.48 2.32 2.28 c0.44 0.4 0.44 0.72 0.12 1.24 c-0.16 0.28 -0.4 0.52 -0.68 0.76 c-1.28 1 -2.56 2 -3.84 3.04 c-0.8 0.64 -2 0.72 -2.84 0.12 c-2.64 -1.92 -5.28 -3.84 -7.88 -5.8 c-0.36 -0.28 -0.76 -0.56 -1 -0.92 c-0.2 -0.36 -0.44 -0.68 -0.44 -1.16 z M51.48 19.64 l0 11.88 c0 0.56 0.24 0.8 0.68 0.8 c0.48 -0.04 0.56 -0.32 0.56 -0.76 l0 -11.92 c0 -0.4 -0.04 -0.76 -0.56 -0.8 c-0.44 0 -0.68 0.24 -0.68 0.8 z M58.56 13.399999999999999 c-0.12 0.28 0 0.48 0.2 0.68 l0.68 0.52 c0.96 0.8 1.92 1.56 2.88 2.32 c0.4 0.32 0.8 0.28 1.04 -0.08 s0.08 -0.6 -0.2 -0.84 l-3.4 -2.76 c-0.16 -0.12 -0.36 -0.24 -0.6 -0.24 c-0.28 0 -0.48 0.12 -0.6 0.4 z M58.8 36.84 c-0.24 0.16 -0.36 0.36 -0.24 0.64 s0.32 0.4 0.64 0.44 c0.2 0 0.4 -0.12 0.52 -0.24 l3.4 -2.64 c0.32 -0.24 0.52 -0.48 0.24 -0.84 c-0.2 -0.36 -0.64 -0.4 -1.04 -0.12 z M72.67999999999999 40.16 l-0.48 -0.12 c-0.68 -0.36 -1.24 -0.92 -3.52 -2.48 c-0.56 -0.36 -0.84 -0.88 -0.84 -1.6 c0.04 -2.84 0.04 -5.72 0.04 -8.56 c0 -0.72 0.4 -1.24 0.92 -1.56 l8.12 -5.2 c0.76 -0.44 1.52 -0.4 2.24 0.12 l3 2.16 c0.68 0.44 0.96 1.16 0.96 1.92 c0.04 2.56 0.04 5.12 0.04 7.68 c0 0.96 -0.44 1.72 -1.28 2.24 l-7.84 5 c-0.44 0.28 -0.88 0.4 -1.36 0.4 z M73.2 26.16 c0 2.24 -0.04 4.48 -0.04 6.76 c0 1.68 0.52 2.4 2.12 3 c1.2 0.44 2.24 -0.2 2.28 -1.48 c0.08 -1.28 0.04 -2.68 0.12 -7.6 c0 -0.6 -0.24 -1.08 -0.68 -1.44 c-0.48 -0.36 -1 -0.68 -1.52 -0.96 s-0.96 -0.2 -1.4 0.12 c-0.56 0.36 -0.88 0.88 -0.88 1.6 z M77.24 22.44 c-0.28 0.32 -0.12 0.56 0.16 0.8 l1.96 1.56 c0.36 0.24 0.52 0.56 0.52 1 c-0.08 2.48 0.04 4.92 -0.04 7.4 c0 0.4 0.16 0.64 0.56 0.64 s0.56 -0.24 0.56 -0.6 c0 -2.56 0 -5.12 -0.04 -7.68 c0 -0.52 -0.16 -1 -0.56 -1.32 c-0.72 -0.68 -1.52 -1.28 -2.32 -1.88 c-0.28 -0.28 -0.6 -0.2 -0.8 0.08 z M70.2 34.72 c0 0.56 0.16 1.08 0.56 1.52 c0.48 0.52 1.04 0.92 1.6 1.32 c0.28 0.2 0.6 0.16 0.8 -0.12 c0.24 -0.28 0.16 -0.52 -0.12 -0.76 c-0.44 -0.32 -0.84 -0.64 -1.24 -1 c-0.32 -0.24 -0.48 -0.52 -0.48 -0.96 l0.04 -7.28 c0 -0.4 -0.08 -0.8 -0.56 -0.76 c-0.44 0 -0.56 0.28 -0.56 0.68 c0 2.44 0 4.88 -0.04 7.36 z M92.83999999999999 23.12 c0.32 0.24 0.48 0.24 0.76 0 l2.64 -1.92 c1 -0.76 1.96 -0.76 3 -0.04 c0.72 0.44 1.4 0.96 2.12 1.44 c0.92 0.56 1.24 1.32 1.24 2.36 l-0.08 8.8 c0 0.56 0.2 0.92 0.72 1.2 c0.48 0.2 0.96 0.48 1.4 0.76 c0.64 0.44 0.72 1 0.16 1.52 c-0.92 0.84 -1.88 1.68 -2.92 2.36 c-0.8 0.6 -1.68 0.32 -2.44 -0.2 l-2.88 -2.16 c-0.36 -0.28 -0.6 -0.32 -0.96 -0.04 c-1.04 0.8 -2.08 1.52 -3.12 2.32 c-0.52 0.4 -1.2 0.92 -2.04 0.52 c-0.96 -0.48 -1.76 -1.16 -2.6 -1.8 c-0.48 -0.32 -0.48 -1.08 -0.48 -1.72 l0 -9.2 c0 -1.28 -0.8 -1.76 -1.92 -2.32 c-0.76 -0.48 -0.88 -0.96 -0.24 -1.64 c0.6 -0.72 1.24 -1.36 1.88 -2 c1 -1.04 2 -1.12 3.16 -0.24 c0.88 0.64 1.76 1.32 2.6 2 z M96.47999999999999 25.48 c-0.64 -0.72 -1.44 -0.96 -2.28 -0.68 c-0.88 0.32 -1.4 0.92 -1.4 1.84 l0 7.36 c0 0.36 0.12 0.68 0.36 0.96 c0.56 0.64 1.84 0.96 2.6 0.68 c0.8 -0.28 1.4 -1.24 1.4 -2.2 l0.08 -5.56 c0 -0.88 -0.16 -1.68 -0.76 -2.4 z M97.24 22.44 c-0.28 0.32 -0.16 0.68 0.16 0.92 c0.4 0.32 0.76 0.68 1.2 0.92 c0.84 0.48 1.08 1.2 1.04 2.16 c-0.08 2.32 -0.08 4.68 -0.08 7.04 c-0.04 2.6 0.12 2.84 2.28 4.32 c0.28 0.2 0.6 0.4 0.84 0 c0.24 -0.36 0.12 -0.68 -0.24 -0.92 l-1.16 -0.92 c-0.4 -0.28 -0.56 -0.64 -0.56 -1.16 c0.04 -1.52 0 -3 0 -9.16 c0 -0.72 -0.2 -1.32 -0.84 -1.76 l-1.8 -1.36 c-0.28 -0.24 -0.56 -0.4 -0.84 -0.08 z M92.55999999999999 37.84 c0.24 -0.28 0.2 -0.6 -0.08 -0.84 c-0.2 -0.2 -0.44 -0.4 -0.64 -0.52 c-0.92 -0.52 -1.24 -1.24 -1.24 -2.36 c0.08 -2.52 0 -5.04 0.04 -7.6 c0 -0.84 -0.04 -1.68 -0.6 -2.36 c-0.6 -0.76 -1.32 -1.28 -2.04 -1.88 c-0.28 -0.2 -0.6 -0.16 -0.8 0.12 c-0.24 0.28 -0.12 0.52 0.08 0.72 c0.4 0.36 0.8 0.76 1.24 1.08 c0.76 0.56 1.04 1.28 1 2.2 l-0.08 7 c-0.28 2.04 0.56 3.4 2.28 4.4 c0.28 0.16 0.48 0.44 0.84 0.04 z M113.27999999999999 23.12 c0.32 0.24 0.48 0.24 0.76 0 l2.64 -1.92 c1 -0.76 1.96 -0.76 3 -0.04 c0.72 0.44 1.4 0.96 2.12 1.44 c0.92 0.56 1.24 1.32 1.24 2.36 l-0.08 8.8 c0 0.56 0.2 0.92 0.72 1.2 c0.48 0.2 0.96 0.48 1.4 0.76 c0.64 0.44 0.72 1 0.16 1.52 c-0.92 0.84 -1.88 1.68 -2.92 2.36 c-0.8 0.6 -1.68 0.32 -2.44 -0.2 l-2.88 -2.16 c-0.36 -0.28 -0.6 -0.32 -0.96 -0.04 c-1.04 0.8 -2.08 1.52 -3.12 2.32 c-0.52 0.4 -1.2 0.92 -2.04 0.52 c-0.96 -0.48 -1.76 -1.16 -2.6 -1.8 c-0.48 -0.32 -0.48 -1.08 -0.48 -1.72 l0 -9.2 c0 -1.28 -0.8 -1.76 -1.92 -2.32 c-0.76 -0.48 -0.88 -0.96 -0.24 -1.64 c0.6 -0.72 1.24 -1.36 1.88 -2 c1 -1.04 2 -1.12 3.16 -0.24 c0.88 0.64 1.76 1.32 2.6 2 z M116.91999999999999 25.48 c-0.64 -0.72 -1.44 -0.96 -2.28 -0.68 c-0.88 0.32 -1.4 0.92 -1.4 1.84 l0 7.36 c0 0.36 0.12 0.68 0.36 0.96 c0.56 0.64 1.84 0.96 2.6 0.68 c0.8 -0.28 1.4 -1.24 1.4 -2.2 l0.08 -5.56 c0 -0.88 -0.16 -1.68 -0.76 -2.4 z M117.67999999999999 22.44 c-0.28 0.32 -0.16 0.68 0.16 0.92 c0.4 0.32 0.76 0.68 1.2 0.92 c0.84 0.48 1.08 1.2 1.04 2.16 c-0.08 2.32 -0.08 4.68 -0.08 7.04 c-0.04 2.6 0.12 2.84 2.28 4.32 c0.28 0.2 0.6 0.4 0.84 0 c0.24 -0.36 0.12 -0.68 -0.24 -0.92 l-1.16 -0.92 c-0.4 -0.28 -0.56 -0.64 -0.56 -1.16 c0.04 -1.52 0 -3 0 -9.16 c0 -0.72 -0.2 -1.32 -0.84 -1.76 l-1.8 -1.36 c-0.28 -0.24 -0.56 -0.4 -0.84 -0.08 z M112.99999999999999 37.84 c0.24 -0.28 0.2 -0.6 -0.08 -0.84 c-0.2 -0.2 -0.44 -0.4 -0.64 -0.52 c-0.92 -0.52 -1.24 -1.24 -1.24 -2.36 c0.08 -2.52 0 -5.04 0.04 -7.6 c0 -0.84 -0.04 -1.68 -0.6 -2.36 c-0.6 -0.76 -1.32 -1.28 -2.04 -1.88 c-0.28 -0.2 -0.6 -0.16 -0.8 0.12 c-0.24 0.28 -0.12 0.52 0.08 0.72 c0.4 0.36 0.8 0.76 1.24 1.08 c0.76 0.56 1.04 1.28 1 2.2 l-0.08 7 c-0.28 2.04 0.56 3.4 2.28 4.4 c0.28 0.16 0.48 0.44 0.84 0.04 z M127.75999999999999 34.8 c-0.4 -0.28 -0.44 -0.72 -0.4 -1.16 c0.12 -2.32 0.08 -4.6 0.08 -6.88 c0 -0.76 0.4 -1.28 0.96 -1.68 c2.36 -1.68 4.76 -3.32 7.16 -4.96 c0.68 -0.48 1.76 -0.44 2.36 0.08 c0.96 0.92 2.12 1.68 3.12 2.56 c0.44 0.4 0.68 0.96 0.76 1.52 c0.08 0.44 -0.16 0.84 -0.52 1.16 c-2.64 2.2 -5.36 4.32 -8.24 6.2 c-0.8 0.64 -0.64 1.52 -0.56 2.52 c0.12 0.96 0.88 1.28 1.68 0.72 c0.76 -0.6 1.44 -1.24 2.12 -1.88 c0.8 -0.8 1.4 -0.8 2.28 -0.12 l1.24 0.96 c0.96 0.84 1 1.64 0.08 2.52 c-1 0.96 -2 1.92 -3.04 2.84 c-0.84 0.72 -1.96 0.8 -3.04 0.04 c-2.04 -1.44 -4.04 -2.96 -6.04 -4.44 z M132.35999999999999 25.32 c0.04 2.48 0.04 2.8 0.12 3.16 c0.16 0.68 0.76 1.12 1.44 1 c1.04 -0.2 1.84 -0.8 2.4 -1.72 c0.32 -0.56 0.32 -1.2 -0.08 -1.68 c-0.44 -0.52 -0.8 -1.08 -1.24 -1.6 c-0.56 -0.6 -1.12 -0.92 -1.72 -0.72 c-0.56 0.2 -0.92 0.76 -0.92 1.56 z M129.95999999999998 26.08 c-0.48 0.04 -0.56 0.36 -0.56 0.76 l0 6.4 c0 0.4 0.08 0.76 0.6 0.76 s0.52 -0.4 0.52 -0.8 c0 -2.12 -0.04 -4.24 0 -6.36 c0 -0.4 -0.08 -0.76 -0.56 -0.76 z M135.88 21.48 c-0.28 0.2 -0.32 0.52 -0.08 0.8 l2.56 2.88 c0.16 0.16 0.36 0.2 0.56 0.08 c0.24 -0.12 0.32 -0.28 0.36 -0.52 c-0.04 -0.16 -0.08 -0.28 -0.2 -0.44 l-2.4 -2.72 c-0.24 -0.28 -0.56 -0.32 -0.8 -0.08 z M135.2 36.36 c-0.28 0.24 -0.52 0.52 -0.2 0.88 s0.64 0.24 0.96 -0.04 c0.8 -0.72 1.64 -1.44 2.44 -2.2 c0.16 -0.12 0.32 -0.24 0.32 -0.4 c0 -0.28 -0.16 -0.44 -0.32 -0.56 c-0.28 -0.12 -0.48 -0.04 -0.72 0.16 z M143.92 35.2 c-0.32 -0.24 -0.44 -0.6 -0.4 -1 c0.2 -2.24 0.08 -4.52 0.08 -6.76 c0 -0.88 0.36 -1.52 1.04 -1.96 c2.52 -1.72 5.12 -3.4 7.68 -5.08 c0.64 -0.4 1.4 -0.48 2.04 0 c1.16 0.96 2.52 1.68 3.68 2.64 c0.6 0.52 0.68 0.92 0.2 1.6 c-0.36 0.52 -0.84 0.88 -1.4 1.2 l-1.28 0.84 c-0.72 0.44 -1.36 0.48 -2 -0.08 c-0.68 -0.6 -1.44 -1.16 -2 -1.96 c-0.32 -0.44 -1.16 -0.68 -1.72 -0.52 s-0.92 0.64 -0.96 1.32 c-0.04 0.52 0 1.04 0 1.56 c0.16 2.44 0.08 4.88 0.12 7.36 c0 0.44 0.08 0.88 0.52 1.12 c0.48 0.2 0.92 0.08 1.36 -0.24 c0.76 -0.56 1.48 -1.2 2.16 -1.88 c0.88 -0.76 1.52 -0.8 2.4 -0.08 c0.56 0.4 1.12 0.76 1.6 1.24 c0.76 0.8 0.76 1.44 -0.04 2.16 c-1.16 1.04 -2.32 2.08 -3.52 3.08 c-0.92 0.76 -2.04 0.56 -2.96 0 c-2.24 -1.48 -4.4 -3.04 -6.6 -4.56 z M146.32 26.439999999999998 c-0.44 0.04 -0.56 0.36 -0.52 0.72 l0 6.68 c0 0.72 0.2 1.28 0.8 1.64 c0.28 0.2 0.56 0.28 0.8 -0.04 c0.2 -0.28 0.2 -0.56 -0.08 -0.8 c-0.44 -0.28 -0.44 -0.68 -0.44 -1.12 l0 -6.36 c0 -0.4 -0.12 -0.72 -0.56 -0.72 z M150.32 37.68 c-0.08 0.28 0.04 0.48 0.32 0.6 c0.16 0.08 0.36 0.12 0.56 0.12 c0.6 0.04 1.08 -0.28 1.48 -0.64 l2.28 -2.12 c0.28 -0.24 0.48 -0.52 0.2 -0.84 c-0.32 -0.36 -0.64 -0.28 -0.92 0.04 l-2.08 1.92 c-0.36 0.32 -0.68 0.68 -1.28 0.48 c-0.28 -0.08 -0.48 0.16 -0.56 0.44 z M152.51999999999998 22.08 c-0.2 0.24 -0.2 0.52 0 0.72 c0.72 0.64 1.44 1.32 2.2 1.96 c0.16 0.16 0.4 0.12 0.6 0 c0.2 -0.08 0.28 -0.24 0.28 -0.52 c-0.04 -0.04 -0.04 -0.16 -0.12 -0.24 c-0.76 -0.68 -1.52 -1.4 -2.28 -2.04 c-0.24 -0.2 -0.52 -0.08 -0.68 0.12 z M169.24 23.4 c0.92 0 1.08 0.2 1.04 1.08 c0 0.44 0 0.88 -0.04 1.32 c-0.08 0.72 -0.36 1 -1.12 1.04 l-1.92 0 c-0.52 0 -0.76 0.24 -0.76 0.72 c0 2.08 -0.04 4.16 -0.04 6.24 c0 0.44 0.24 0.8 0.64 1.08 l1.32 1.04 c0.56 0.44 0.72 0.96 0.32 1.56 c-0.68 1 -1.6 1.88 -2.6 2.56 c-0.64 0.48 -1.4 0.2 -1.96 -0.24 c-0.92 -0.76 -1.76 -1.56 -2.64 -2.32 c-0.4 -0.36 -0.48 -0.84 -0.48 -1.32 c-0.04 -1.92 -0.04 -3.84 -0.04 -15.08 c0.04 -0.88 -0.28 -1.56 -1.04 -2 c-0.44 -0.28 -0.84 -0.56 -1.2 -0.88 c-0.6 -0.44 -0.72 -0.92 -0.36 -1.56 c0.32 -0.56 0.84 -0.92 2.16 -2.16 c0.84 -0.76 1.8 -0.8 2.72 -0.12 c0.92 0.72 1.8 1.48 2.68 2.2 c0.44 0.4 0.52 0.92 0.52 1.48 l0 4.56 c0 0.56 0.24 0.84 0.84 0.8 c0.64 -0.04 1.32 -0.04 1.96 0 z M166.48 37.2 c0.28 -0.36 0.16 -0.68 -0.2 -0.92 l-1.36 -0.96 c-0.44 -0.32 -0.64 -0.72 -0.64 -1.28 c0.04 -2.48 0 -5 0 -15 c0 -0.76 -0.16 -1.4 -0.72 -1.92 c-0.6 -0.56 -1.24 -1.04 -1.88 -1.56 c-0.32 -0.28 -0.64 -0.24 -0.88 0.08 c-0.24 0.28 -0.08 0.56 0.16 0.76 l1.44 1.2 c0.6 0.4 0.84 0.96 0.8 1.68 l0 14.96 c0 0.8 0.28 1.4 0.92 1.84 c0.52 0.32 1 0.72 1.52 1.08 c0.28 0.24 0.56 0.44 0.84 0.04 z M168.76 25.52 c0.24 0 0.44 -0.12 0.44 -0.4 c0.04 -0.28 -0.16 -0.44 -0.4 -0.44 l-1.68 0 c-0.24 0 -0.36 0.16 -0.36 0.4 c0 0.2 0.2 0.32 0.4 0.36 z M172.44 34.8 c-0.4 -0.28 -0.44 -0.72 -0.4 -1.16 c0.12 -2.32 0.08 -4.6 0.08 -6.88 c0 -0.76 0.4 -1.28 0.96 -1.68 c2.36 -1.68 4.76 -3.32 7.16 -4.96 c0.68 -0.48 1.76 -0.44 2.36 0.08 c0.96 0.92 2.12 1.68 3.12 2.56 c0.44 0.4 0.68 0.96 0.76 1.52 c0.08 0.44 -0.16 0.84 -0.52 1.16 c-2.64 2.2 -5.36 4.32 -8.24 6.2 c-0.8 0.64 -0.64 1.52 -0.56 2.52 c0.12 0.96 0.88 1.28 1.68 0.72 c0.76 -0.6 1.44 -1.24 2.12 -1.88 c0.8 -0.8 1.4 -0.8 2.28 -0.12 l1.24 0.96 c0.96 0.84 1 1.64 0.08 2.52 c-1 0.96 -2 1.92 -3.04 2.84 c-0.84 0.72 -1.96 0.8 -3.04 0.04 c-2.04 -1.44 -4.04 -2.96 -6.04 -4.44 z M177.04 25.32 c0.04 2.48 0.04 2.8 0.12 3.16 c0.16 0.68 0.76 1.12 1.44 1 c1.04 -0.2 1.84 -0.8 2.4 -1.72 c0.32 -0.56 0.32 -1.2 -0.08 -1.68 c-0.44 -0.52 -0.8 -1.08 -1.24 -1.6 c-0.56 -0.6 -1.12 -0.92 -1.72 -0.72 c-0.56 0.2 -0.92 0.76 -0.92 1.56 z M174.64 26.08 c-0.48 0.04 -0.56 0.36 -0.56 0.76 l0 6.4 c0 0.4 0.08 0.76 0.6 0.76 s0.52 -0.4 0.52 -0.8 c0 -2.12 -0.04 -4.24 0 -6.36 c0 -0.4 -0.08 -0.76 -0.56 -0.76 z M180.56 21.48 c-0.28 0.2 -0.32 0.52 -0.08 0.8 l2.56 2.88 c0.16 0.16 0.36 0.2 0.56 0.08 c0.24 -0.12 0.32 -0.28 0.36 -0.52 c-0.04 -0.16 -0.08 -0.28 -0.2 -0.44 l-2.4 -2.72 c-0.24 -0.28 -0.56 -0.32 -0.8 -0.08 z M179.88 36.36 c-0.28 0.24 -0.52 0.52 -0.2 0.88 s0.64 0.24 0.96 -0.04 c0.8 -0.72 1.64 -1.44 2.44 -2.2 c0.16 -0.12 0.32 -0.24 0.32 -0.4 c0 -0.28 -0.16 -0.44 -0.32 -0.56 c-0.28 -0.12 -0.48 -0.04 -0.72 0.16 z M188.2 35.76 l0 -8.52 c-0.04 -0.96 0.36 -1.68 1.12 -2.2 c7.12 -4.88 8.12 -5.28 8.12 -5.64 c0.04 -0.8 0.04 -1.56 -0.76 -2.04 c-0.48 -0.32 -0.96 -0.72 -1.44 -1.08 c-0.68 -0.52 -0.76 -1.08 -0.28 -1.8 c0.4 -0.64 1.04 -1.08 1.56 -1.64 l0.44 -0.4 c0.8 -0.8 1.76 -0.88 2.64 -0.2 c0.88 0.72 1.76 1.52 2.6 2.28 c0.4 0.36 0.48 0.88 0.52 1.36 l-0.08 17.48 c0 0.64 0.2 1.12 0.8 1.4 c0.44 0.2 0.84 0.48 1.28 0.76 c0.56 0.32 0.68 0.76 0.32 1.24 c-0.76 1.04 -1.64 2.04 -2.6 2.88 c-0.6 0.56 -1.6 0.36 -2.4 -0.28 c-0.84 -0.68 -1.72 -1.36 -2.52 -2.04 c-0.32 -0.28 -0.48 -0.2 -0.76 0 c-0.76 0.72 -1.52 1.4 -2.32 2.08 c-0.92 0.8 -1.76 0.84 -2.72 0.08 c-0.88 -0.72 -1.8 -1.4 -2.72 -2.08 c-0.52 -0.44 -0.8 -0.96 -0.8 -1.64 z M193.35999999999999 33.24 c0 0.48 0.08 0.92 0.4 1.28 c0.48 0.56 1.16 0.96 1.84 1.32 c0.2 0.08 0.44 0.12 0.6 0 c0.68 -0.44 1.28 -0.96 1.36 -1.8 c0.2 -2.56 0.04 -5.12 0.08 -7.64 c0 -0.48 -0.16 -0.92 -0.48 -1.28 c-0.56 -0.56 -1.2 -1 -1.88 -1.32 c-0.56 -0.28 -1.16 -0.12 -1.52 0.36 c-0.28 0.36 -0.4 0.8 -0.4 1.28 l0 7.8 z M197.4 14.68 l1.08 0.8 c0.88 0.6 1.24 1.4 1.24 2.48 c-0.24 5.36 0.16 10.84 -0.08 16.2 c-0.08 1.4 0.36 2.4 1.48 3.16 l0.8 0.56 c0.24 0.2 0.56 0.4 0.8 0.04 c0.28 -0.36 0.16 -0.68 -0.16 -0.92 c-0.36 -0.28 -0.72 -0.48 -1.04 -0.76 c-0.52 -0.36 -0.76 -0.8 -0.76 -1.48 c0.04 -2.84 0.04 -5.8 0 -17.36 c0 -0.6 -0.12 -1.24 -0.48 -1.72 c-0.6 -0.8 -1.44 -1.32 -2.24 -1.88 c-0.28 -0.2 -0.6 -0.12 -0.8 0.16 s-0.08 0.52 0.16 0.72 z M190.12 34.12 c-0.16 1.88 0.92 2.76 2.2 3.64 c0.28 0.16 0.6 0.12 0.84 -0.16 c0.2 -0.28 0.08 -0.52 -0.16 -0.76 c-0.4 -0.28 -0.8 -0.64 -1.24 -0.96 c-0.4 -0.32 -0.56 -0.76 -0.56 -1.28 c0.04 -1.16 0.04 -2.32 0.12 -7.12 c0 -0.44 -0.2 -0.68 -0.64 -0.64 c-0.48 0.04 -0.48 0.44 -0.48 0.76 c-0.04 2.2 0.08 4.36 -0.08 6.52 z M196.16 21.64 c-0.08 0.24 -0.04 0.44 0.12 0.6 c0.4 0.4 0.8 0.76 1.24 1.12 c0.28 0.2 0.56 0.24 0.8 -0.08 c0.2 -0.28 0.16 -0.56 -0.08 -0.8 l-1.16 -0.96 c-0.12 -0.12 -0.28 -0.16 -0.32 -0.16 c-0.32 0 -0.48 0.08 -0.6 0.28 z"></path></g>
			</g>
		</svg>
	